<?xml version="1.0" encoding="utf-8"?>
<!-- Generator: Adobe Illustrator 19.2.1, SVG Export Plug-In . SVG Version: 6.00 Build 0)  -->
<svg version="1.2" baseProfile="tiny" id="Calque_1"
	 xmlns="http://www.w3.org/2000/svg" xmlns:xlink="http://www.w3.org/1999/xlink" x="0px" y="0px" viewBox="0 0 200 200"
	 xml:space="preserve">
<g>
	<g>
		<path d="M88.4,84.5v-0.4c0.4,0,0.7-0.1,0.8-0.2c0.3-0.1,0.4-0.4,0.4-0.8v-6.7c0-0.4-0.1-0.7-0.4-0.8c-0.2-0.1-0.4-0.1-0.8-0.2
			v-0.4h8v2.8h-0.3c-0.2-0.9-0.5-1.5-0.9-1.8c-0.4-0.3-1.2-0.5-2.3-0.5c-0.4,0-0.7,0-0.8,0.1c-0.1,0.1-0.2,0.3-0.2,0.5v3.2
			c0.8,0,1.3-0.1,1.6-0.4c0.3-0.3,0.5-0.8,0.6-1.6h0.4v4.7h-0.4c-0.1-0.8-0.3-1.4-0.6-1.7c-0.3-0.3-0.9-0.5-1.6-0.5v3.4
			c0,0.3,0.1,0.5,0.2,0.6c0.2,0.1,0.5,0.2,0.9,0.2c0.9,0,1.6-0.2,2.2-0.5c0.6-0.3,1.1-1,1.5-1.9h0.4l-0.6,2.9H88.4z"/>
		<path d="M97.7,81.2h0.4c0.2,1,0.6,1.8,1.1,2.3s1.1,0.7,1.7,0.7c0.6,0,1.1-0.2,1.3-0.5c0.3-0.3,0.4-0.7,0.4-1c0-0.4-0.1-0.8-0.4-1
			c-0.2-0.2-0.5-0.4-1.1-0.7l-0.9-0.4c-0.9-0.4-1.5-0.9-1.9-1.3c-0.4-0.4-0.5-1-0.5-1.6c0-0.7,0.2-1.3,0.7-1.9
			c0.5-0.6,1.2-0.9,2.2-0.9c0.5,0,1,0.1,1.5,0.2c0.5,0.2,0.7,0.2,0.8,0.2c0.2,0,0.3,0,0.3-0.1c0.1-0.1,0.1-0.2,0.1-0.4h0.4v3h-0.4
			c-0.2-0.7-0.5-1.3-1-1.8c-0.5-0.5-1-0.8-1.7-0.8c-0.5,0-0.8,0.1-1.1,0.4c-0.3,0.3-0.4,0.6-0.4,0.9c0,0.4,0.1,0.8,0.4,1
			c0.2,0.2,0.8,0.5,1.7,1l1,0.5c0.5,0.2,0.8,0.5,1.1,0.8c0.5,0.5,0.8,1.2,0.8,1.9c0,0.7-0.3,1.4-0.8,2c-0.5,0.6-1.4,0.9-2.6,0.9
			c-0.3,0-0.6,0-0.8-0.1c-0.3-0.1-0.6-0.1-0.8-0.2l-0.3-0.1c-0.1,0-0.1,0-0.2,0c-0.1,0-0.1,0-0.1,0c-0.1,0-0.2,0-0.3,0.1
			c-0.1,0.1-0.1,0.2-0.1,0.4h-0.4V81.2z"/>
		<path d="M105,84.1c0.4,0,0.7-0.1,0.8-0.2c0.3-0.1,0.4-0.4,0.4-0.8v-6.7c0-0.4-0.1-0.7-0.4-0.8c-0.2-0.1-0.4-0.1-0.8-0.2v-0.4h4.9
			v0.4c-0.6,0-0.9,0.1-1.1,0.2c-0.2,0.1-0.3,0.5-0.3,1v6.6c0,0.3,0.1,0.5,0.2,0.6c0.2,0.1,0.5,0.1,0.9,0.1c0.8,0,1.5-0.2,2.1-0.6
			c0.6-0.4,1.1-1.1,1.5-2.2h0.4l-0.6,3.2H105V84.1z"/>
	</g>
	<g>
		<path d="M39.8,123.3c1.6,0,2.6-0.3,3-0.9c0.4-0.6,0.7-1.4,0.7-2.4v-19.8c-1.3-1.4-2.1-2.3-2.4-2.5c-0.3-0.3-0.7-0.4-1.2-0.5v-1.1
			h8.9l14.4,17.5h0.2v-12.3c0-1.4-0.3-2.4-0.8-3s-1.5-1-3.1-1.1v-1.1h9v1.1c-1.3,0.2-2.2,0.5-2.6,0.9c-0.4,0.4-0.7,1.2-0.7,2.5v24.6
			H64l-18.4-22.4h-0.3v16.4c0,1.3,0.2,2.2,0.5,2.7c0.6,0.9,1.7,1.3,3.4,1.4v1.1h-9.5V123.3z"/>
		<path d="M70,124.4v-1.1c1.2,0,2-0.2,2.6-0.5c0.8-0.4,1.2-1.3,1.2-2.4v-20.3c0-1.2-0.4-2-1.2-2.5c-0.5-0.3-1.3-0.4-2.5-0.5v-1.1
			h24.1v8.4h-1c-0.5-2.7-1.4-4.5-2.7-5.5s-3.6-1.5-7-1.5c-1.3,0-2.1,0.1-2.4,0.4c-0.3,0.3-0.5,0.8-0.5,1.6v9.7c2.4,0,4-0.4,4.8-1.3
			s1.5-2.5,1.9-4.9h1.1v14.1h-1.1c-0.3-2.4-0.9-4.1-1.8-5c-0.9-1-2.6-1.5-4.9-1.5v10.1c0,0.9,0.2,1.5,0.7,1.8
			c0.5,0.3,1.4,0.5,2.8,0.5c2.7,0,4.8-0.5,6.5-1.6c1.7-1,3.2-3,4.5-5.8h1.2l-1.7,8.7H70z"/>
		<path d="M110.3,96.1v1c-1,0.1-1.7,0.2-2.1,0.4c-0.4,0.2-0.6,0.6-0.6,1.3c0,0.2,0,0.4,0.1,0.6c0,0.2,0.1,0.5,0.2,0.7l5.1,14.6h0.1
			l4.8-12.2c0-0.1-0.2-0.7-0.6-1.9c-0.4-1.2-0.7-1.9-0.9-2.2c-0.3-0.5-0.7-0.8-1-1c-0.4-0.2-1.1-0.3-2-0.4v-1h13.1v1
			c-1.2,0.1-2,0.2-2.4,0.4c-0.4,0.2-0.6,0.5-0.6,1.1c0,0.1,0,0.4,0.1,0.8c0.1,0.4,0.2,0.9,0.5,1.6l4.8,13.5h-0.2l4.6-13.8
			c0.1-0.2,0.2-0.5,0.2-0.8c0.1-0.3,0.1-0.6,0.1-0.9c0-0.8-0.3-1.3-0.9-1.6c-0.4-0.2-1-0.3-2-0.3v-1h7.7v1c-0.6,0.1-1.1,0.3-1.5,0.5
			c-0.6,0.4-1.1,1.2-1.4,2.2l-8.4,25.2h-1.1l-7-19.6h-0.3l-7.7,19.6h-1.2l-8.8-25.2c-0.4-1.1-0.8-1.8-1.1-2.1
			c-0.4-0.3-1-0.5-1.8-0.6v-1H110.3z"/>
		<path d="M140.5,114.6h1.2c0.7,3.1,1.7,5.4,3.2,6.8c1.5,1.4,3.2,2.1,5.1,2.1c1.9,0,3.2-0.5,4-1.5c0.8-1,1.2-2,1.2-3.1
			c0-1.3-0.4-2.3-1.2-3.1c-0.5-0.5-1.6-1.2-3.3-2l-2.7-1.3c-2.6-1.3-4.5-2.7-5.6-4c-1.1-1.3-1.6-2.9-1.6-4.8c0-2,0.7-3.9,2.2-5.7
			c1.4-1.8,3.6-2.7,6.6-2.7c1.5,0,3,0.2,4.4,0.7c1.4,0.5,2.2,0.7,2.4,0.7c0.5,0,0.8-0.1,0.9-0.4c0.2-0.3,0.3-0.6,0.4-1.1h1.2v9.1
			h-1.2c-0.5-2.1-1.5-3.9-2.9-5.5s-3.1-2.3-5-2.3c-1.4,0-2.5,0.4-3.3,1.2c-0.8,0.8-1.2,1.7-1.2,2.8c0,1.3,0.4,2.3,1.1,3
			c0.7,0.7,2.4,1.6,5,2.9l3.1,1.6c1.4,0.7,2.5,1.5,3.3,2.3c1.5,1.6,2.3,3.5,2.3,5.8c0,2.1-0.8,4.1-2.5,6c-1.6,1.9-4.3,2.8-7.9,2.8
			c-0.8,0-1.7-0.1-2.5-0.2c-0.9-0.2-1.7-0.4-2.5-0.7l-0.8-0.3c-0.2-0.1-0.4-0.1-0.5-0.1c-0.2,0-0.3-0.1-0.4-0.1
			c-0.4,0-0.7,0.1-0.9,0.4c-0.2,0.3-0.3,0.6-0.4,1.1h-1.2V114.6z"/>
	</g>
</g>
</svg>
